# xmcd
#
# Track frame offsets: 
#        150
#        17314
#        37478
#
# Disc length: 747 seconds
#
# Revision: 0
# Processed by: cddbd v1.5.2PL0 Copyright (c) Steve Scherf et al.
# Submitted via: ExactAudioCopy v0.99pb5
#
DISCID=1d02e903
DTITLE=Dirk Busch - Enkelkinder
DYEAR=2010
DGENRE=Pop
TTITLE0=Enkelkinder
TTITLE1=Mein Kind
TTITLE2=Gute Nacht - Lied
EXTD=
EXTT0=
EXTT1=
EXTT2=
PLAYORDER=
